# xmcd
#
# Track frame offsets: 
#        150
#        21944
#        41655
#        59879
#        80777
#        102502
#        119785
#        141859
#        158565
#        176069
#        200291
#        219753
#        238755
#
# Disc length: 3445 seconds
#
# Revision: 0
# Processed by: cddbd v1.5.1PL2 Copyright (c) Steve Scherf et al.
# Submitted via: ExactAudioCopy v0.95a4
#
DISCID=c20d730d
DTITLE=杨竹青 - 发烧传说
DYEAR=2005
DGENRE=Electronic
TTITLE0=守候在凌晨两点的伤心秀吧
TTITLE1=天冷就回来
TTITLE2=梦江南
TTITLE3=为什么相爱的人不能在一起
TTITLE4=哭泣的百合花
TTITLE5=天变地变情不变
TTITLE6=天地情缘
TTITLE7=月亮之上
TTITLE8=仙剑问情
TTITLE9=来生缘
TTITLE10=一生有你
TTITLE11=不能和你分手
TTITLE12=九百九十九朵玫瑰
EXTD=
EXTT0=
EXTT1=
EXTT2=
EXTT3=
EXTT4=
EXTT5=
EXTT6=
EXTT7=
EXTT8=
EXTT9=
EXTT10=
EXTT11=
EXTT12=
PLAYORDER=
